<svg width="25" height="31" viewBox="0 0 25 31" fill="none" xmlns="http://www.w3.org/2000/svg">
<path d="M1.66946 30H23.0923V25.814L1.66946 26.0756C1.44631 26.4244 1 27.3314 1 28.1686C1 29.0058 1.44631 29.7384 1.66946 30Z" fill="white"/>
<path d="M24 30H2.63472C2.04059 30 1.45603 29.7393 1.23452 29.188C1.1021 28.8585 1 28.4641 1 28.0452C1 27.6235 1.10349 27.1852 1.23721 26.8007C1.46099 26.1573 2.10888 25.806 2.79005 25.7975L24 25.5319" stroke="#BB86FD"/>
<path d="M1 2C1 0.89543 1.89543 0 3 0H24V26.1702H1V2Z" fill="#BB86FD"/>
<rect x="7.27271" y="5.74469" width="11.1515" height="5.74468" fill="white"/>
<path d="M7.62134 15.9575H18.0759" stroke="white"/>
<path d="M8.66675 19.1489H17.0304" stroke="white"/>
</svg>
