<svg width="15" height="15" viewBox="0 0 15 15" fill="none" xmlns="http://www.w3.org/2000/svg">
<path d="M14.5 7.5C14.5 11.366 11.366 14.5 7.5 14.5C3.63401 14.5 0.5 11.366 0.5 7.5C0.5 3.63401 3.63401 0.5 7.5 0.5C11.366 0.5 14.5 3.63401 14.5 7.5Z" stroke="white"/>
<path d="M7.125 2.625H7.875V7.5H7.125V2.625Z" fill="white"/>
<path d="M10.2318 9.62025L9.62247 10.23L7.18347 7.791L7.79322 7.18088L10.2318 9.62025Z" fill="white"/>
<path d="M7.5 8.25C7.91421 8.25 8.25 7.91421 8.25 7.5C8.25 7.08579 7.91421 6.75 7.5 6.75C7.08579 6.75 6.75 7.08579 6.75 7.5C6.75 7.91421 7.08579 8.25 7.5 8.25Z" fill="#ABABAB"/>
<path d="M7.5 7.875C7.70711 7.875 7.875 7.70711 7.875 7.5C7.875 7.29289 7.70711 7.125 7.5 7.125C7.29289 7.125 7.125 7.29289 7.125 7.5C7.125 7.70711 7.29289 7.875 7.5 7.875Z" fill="white"/>
</svg>
