<svg width="24" height="24" viewBox="0 0 24 24" fill="none" xmlns="http://www.w3.org/2000/svg">
<path d="M21 13.067V18.972C21 20.092 20.099 21 18.987 21H5.013C3.901 21 3 20.092 3 18.972V6.028C3 4.908 3.901 4 5.013 4H12" stroke="#343434" stroke-width="1.5" stroke-linecap="round" stroke-linejoin="round"/>
<path d="M7.828 17.172L11.559 16.239C11.735 16.195 11.895 16.104 12.024 15.976L20.414 7.58599C21.195 6.80499 21.195 5.53899 20.414 4.75799L20.242 4.58599C19.461 3.80499 18.195 3.80499 17.414 4.58599L9.024 12.976C8.896 13.104 8.805 13.265 8.761 13.441L7.828 17.172" stroke="#343434" stroke-width="1.5" stroke-linecap="round" stroke-linejoin="round"/>
<path d="M15.83 6.16998L18.83 9.16998" stroke="#343434" stroke-width="1.5" stroke-linecap="round" stroke-linejoin="round"/>
<path d="M11.546 16.242C11.56 16.136 11.578 16.031 11.578 15.921C11.578 14.54 10.459 13.421 9.07802 13.421C8.96802 13.421 8.86302 13.44 8.75702 13.453" stroke="#343434" stroke-width="1.5" stroke-linecap="round" stroke-linejoin="round"/>
</svg>
