<svg width="35" height="35" viewBox="0 0 35 35" fill="none" xmlns="http://www.w3.org/2000/svg">
<circle cx="17.5" cy="17.5" r="17.5" fill="#1977F3"/>
<path d="M21.4886 13.9091V16.6364H13.4091V13.9091H21.4886ZM15.2585 27V12.9631C15.2585 12.0142 15.4432 11.2273 15.8125 10.6023C16.1875 9.97727 16.6989 9.50852 17.3466 9.19602C17.9943 8.88352 18.7301 8.72727 19.554 8.72727C20.1108 8.72727 20.6193 8.76989 21.0795 8.85511C21.5455 8.94034 21.892 9.01705 22.1193 9.08523L21.4716 11.8125C21.3295 11.767 21.1534 11.7244 20.9432 11.6847C20.7386 11.6449 20.5284 11.625 20.3125 11.625C19.7784 11.625 19.4062 11.75 19.196 12C18.9858 12.2443 18.8807 12.5881 18.8807 13.0312V27H15.2585Z" fill="white"/>
</svg>
