<svg width="30" height="38" viewBox="0 0 30 38" fill="none" xmlns="http://www.w3.org/2000/svg">
<path d="M0 38V0H25.2634L30 7V38H0Z" fill="#FF0019"/>
<path d="M24.5 7V0.5L29 7H24.5Z" fill="white"/>
<path d="M6.08 23V19.906H7.068C8.11667 19.906 8.90533 19.659 9.434 19.165C9.91067 18.723 10.149 18.112 10.149 17.332C10.149 15.7373 9.174 14.94 7.224 14.94H4.949V23H6.08ZM6.964 18.944H6.08V15.889H7.146C7.77867 15.889 8.24233 16.0103 8.537 16.253C8.84033 16.4957 8.992 16.8683 8.992 17.371C8.992 17.761 8.90967 18.0687 8.745 18.294C8.589 18.5193 8.355 18.684 8.043 18.788C7.731 18.892 7.37133 18.944 6.964 18.944ZM13.6309 23C14.5582 23 15.3425 22.8483 15.9839 22.545C16.6252 22.233 17.1105 21.7737 17.4399 21.167C17.7692 20.5517 17.9339 19.7933 17.9339 18.892C17.9339 18.034 17.7735 17.3103 17.4529 16.721C17.1322 16.1317 16.6685 15.6897 16.0619 15.395C15.4639 15.0917 14.7402 14.94 13.8909 14.94H11.5379V23H13.6309ZM13.7089 22.038H12.6689V15.889H13.8649C15.7975 15.889 16.7639 16.903 16.7639 18.931C16.7639 21.0023 15.7455 22.038 13.7089 22.038ZM20.565 23V19.607H23.737V18.658H20.565V15.902H23.958V14.94H19.447V23H20.565Z" fill="white"/>
</svg>
