<svg width="30" height="38" viewBox="0 0 30 38" fill="none" xmlns="http://www.w3.org/2000/svg">
<path d="M0 38V0H25.2634L30 7V38H0Z" fill="#FFB72A"/>
<path d="M24.5 7V0.5L29 7H24.5Z" fill="white"/>
<path d="M6.08 23H4.949V14.94H7.224C9.174 14.94 10.149 15.7373 10.149 17.332C10.149 18.112 9.91067 18.723 9.434 19.165C8.90533 19.659 8.11667 19.906 7.068 19.906H6.08V23ZM6.964 18.944C7.37133 18.944 7.731 18.892 8.043 18.788C8.355 18.684 8.589 18.5193 8.745 18.294C8.90967 18.0687 8.992 17.761 8.992 17.371C8.992 16.8683 8.84033 16.4957 8.537 16.253C8.24233 16.0103 7.77867 15.889 7.146 15.889H6.08V18.944H6.964ZM13.6309 23H11.5379V14.94H13.8909C14.7402 14.94 15.4639 15.0917 16.0619 15.395C16.6685 15.6897 17.1322 16.1317 17.4529 16.721C17.7735 17.3103 17.9339 18.034 17.9339 18.892C17.9339 19.7933 17.7692 20.5517 17.4399 21.167C17.1105 21.7737 16.6252 22.233 15.9839 22.545C15.3425 22.8483 14.5582 23 13.6309 23ZM13.7089 22.038C15.7455 22.038 16.7639 21.0023 16.7639 18.931C16.7639 16.903 15.7975 15.889 13.8649 15.889H12.6689V22.038H13.7089ZM20.565 23H19.447V14.94H23.958V15.902H20.565V18.658H23.737V19.607H20.565V23Z" fill="white"/>
</svg>
