<svg width="36" height="36" viewBox="0 0 36 36" fill="none" xmlns="http://www.w3.org/2000/svg">
<path d="M7 32.4759V4H25.9315L29.481 9.24557V32.4759H7Z" fill="#96C3E7"/>
<path d="M25.3595 9.24558V4.37469L28.7316 9.24558H25.3595Z" fill="white"/>
<path d="M10.7188 20V14.3984H13.7852C14.6914 14.3984 15.1445 14.8529 15.1445 15.7617V16.5586C15.1445 17.4674 14.6914 17.9219 13.7852 17.9219H11.5195V20H10.7188ZM11.5195 17.1211H13.7422C13.9557 17.1211 14.1094 17.0742 14.2031 16.9805C14.2969 16.8867 14.3438 16.7331 14.3438 16.5195V15.8008C14.3438 15.5872 14.2969 15.4336 14.2031 15.3398C14.1094 15.2461 13.9557 15.1992 13.7422 15.1992H11.5195V17.1211ZM19.1133 19.1992C19.4857 19.1992 19.7721 19.099 19.9727 18.8984C20.1732 18.6979 20.2734 18.4115 20.2734 18.0391V16.3594C20.2734 16.1771 20.2474 16.0143 20.1953 15.8711C20.1432 15.7279 20.0664 15.6068 19.9648 15.5078C19.8659 15.4062 19.7448 15.3294 19.6016 15.2773C19.4583 15.2253 19.2956 15.1992 19.1133 15.1992H17.0664V19.1992H19.1133ZM16.2656 20V14.3984H19.1133C19.4128 14.3984 19.6823 14.4453 19.9219 14.5391C20.1641 14.6302 20.3698 14.7617 20.5391 14.9336C20.7109 15.1029 20.8424 15.3086 20.9336 15.5508C21.0273 15.793 21.0742 16.0625 21.0742 16.3594V18.0391C21.0742 18.3359 21.0273 18.6055 20.9336 18.8477C20.8424 19.0898 20.7109 19.2969 20.5391 19.4688C20.3698 19.638 20.1641 19.7695 19.9219 19.8633C19.6823 19.9544 19.4128 20 19.1133 20H16.2656ZM22.3594 14.3984H26.4414V15.1992H23.1602V16.8008H25.9609V17.6016H23.1602V20H22.3594V14.3984Z" fill="white"/>
</svg>
