<svg width="24" height="25" viewBox="0 0 24 25" fill="none" xmlns="http://www.w3.org/2000/svg">
<path d="M0 10.082V23C0 24.1046 0.89543 25 2 25H22C23.1046 25 24 24.1046 24 23V10.0456C24 9.42909 23.7157 8.84705 23.2294 8.46808L13.5565 0.929633C12.8508 0.379645 11.8656 0.365281 11.1442 0.894458L0.817106 8.46929C0.303454 8.84605 0 9.44496 0 10.082Z" fill="#D9D9D9"/>
<path d="M0 10.082V23C0 24.1046 0.89543 25 2 25H22C23.1046 25 24 24.1046 24 23V10.0456C24 9.42909 23.7157 8.84705 23.2294 8.46808L13.5565 0.929633C12.8508 0.379645 11.8656 0.365281 11.1442 0.894458L0.817106 8.46929C0.303454 8.84605 0 9.44496 0 10.082Z" fill="black" fill-opacity="0.25"/>
<path d="M0 12.3081V23C0 24.1046 0.895428 25 2 25H20.1176C21.2222 25 22.1176 24.1046 22.1176 23V12.2718C22.1176 11.633 21.8125 11.0326 21.2964 10.6561L12.5377 4.26585C11.8524 3.76583 10.9261 3.75259 10.2268 4.23282L0.867868 10.6593C0.324623 11.0324 0 11.6491 0 12.3081Z" fill="#D9D9D9"/>
<path d="M6.58826 15.7255C6.58826 14.6209 7.48369 13.7255 8.58826 13.7255H14.4706C15.5752 13.7255 16.4706 14.6209 16.4706 15.7255V25H6.58826V15.7255Z" fill="white" fill-opacity="0.25"/>
<path d="M6.58826 17.1961C6.58826 16.0915 7.48369 15.1961 8.58826 15.1961H13.0588C14.1634 15.1961 15.0588 16.0915 15.0588 17.1961V25H6.58826V17.1961Z" fill="white" fill-opacity="0.5"/>
</svg>
