<svg width="14" height="14" viewBox="0 0 14 14" fill="none" xmlns="http://www.w3.org/2000/svg">
<path d="M2.72223 12.6295V1.55554H10.0845L11.4648 3.59549V12.6295H2.72223Z" fill="white"/>
<path d="M9.862 3.59553V1.70129L11.1734 3.59553H9.862Z" fill="#0F4B8F"/>
<path d="M4.16843 7.44446V5.26607H5.36092C5.71335 5.26607 5.88957 5.44279 5.88957 5.79624V6.10613C5.88957 6.45958 5.71335 6.6363 5.36092 6.6363H4.47984V7.44446H4.16843ZM4.47984 6.32488H5.34421C5.42726 6.32488 5.48701 6.30665 5.52346 6.2702C5.55992 6.23374 5.57815 6.17399 5.57815 6.09094V5.81143C5.57815 5.72838 5.55992 5.66863 5.52346 5.63217C5.48701 5.59572 5.42726 5.57749 5.34421 5.57749H4.47984V6.32488ZM7.43297 7.13304C7.57779 7.13304 7.68919 7.09405 7.76717 7.01607C7.84515 6.93809 7.88414 6.82669 7.88414 6.68187V6.02866C7.88414 5.95777 7.87401 5.89447 7.85376 5.83877C7.83351 5.78307 7.80363 5.73598 7.76413 5.6975C7.72565 5.658 7.67856 5.62812 7.62286 5.60787C7.56716 5.58761 7.50386 5.57749 7.43297 5.57749H6.63696V7.13304H7.43297ZM6.32555 7.44446V5.26607H7.43297C7.54943 5.26607 7.65425 5.2843 7.74742 5.32076C7.84161 5.35621 7.92161 5.40735 7.98744 5.47419C8.05428 5.54002 8.10542 5.62002 8.14087 5.71421C8.17733 5.80839 8.19556 5.91321 8.19556 6.02866V6.68187C8.19556 6.79732 8.17733 6.90214 8.14087 6.99632C8.10542 7.09051 8.05428 7.17102 7.98744 7.23786C7.92161 7.30369 7.84161 7.35483 7.74742 7.39129C7.65425 7.42674 7.54943 7.44446 7.43297 7.44446H6.32555ZM8.69534 5.26607H10.2828V5.57749H9.00675V6.20032H10.0959V6.51173H9.00675V7.44446H8.69534V5.26607Z" fill="#0F4B8F"/>
</svg>
