<svg width="24" height="24" viewBox="0 0 24 24" fill="none" xmlns="http://www.w3.org/2000/svg">
<path d="M7.55137 8.56227C7.92646 5.93727 10.2082 4.96852 11.3022 4.81227C10.9206 4.49977 10.888 3.40629 11.0951 2.9375C11.3022 2.46871 12.0328 2 12.5017 2C12.9705 2 14.3771 2.46875 14.3771 3.40625C14.3771 4.15625 14.2026 4.65602 14.1154 4.81227C14.5842 4.81227 16.065 5.1875 17.1902 6.6875C17.8935 7.625 17.8076 8.09375 17.8662 8.56227C18.0225 9.81227 18.2217 11.7498 18.5968 13.2498C19.0656 15.125 19.2727 14.7896 19.7416 15.7271C20.1167 16.4771 20.0542 17.4685 19.7416 17.4685H5.2071C5.05082 16.9998 4.83202 15.9685 5.2071 15.5935C5.58219 15.2185 6.3011 13.8748 6.61366 13.2498C6.76995 12.781 7.17629 11.1873 7.55137 8.56227Z" fill="#343434"/>
<path d="M14.8446 19.3438H10.1582C10.1582 20.2812 10.7187 20.8438 11.0938 21.2188C11.5626 21.6875 12.1877 21.6875 12.5003 21.6875C12.9692 21.6875 13.5312 21.5938 13.9062 21.2188L13.907 21.218C14.2821 20.843 14.8446 20.2806 14.8446 19.3438Z" fill="#343434"/>
</svg>
