<svg width="37" height="37" viewBox="0 0 37 37" fill="none" xmlns="http://www.w3.org/2000/svg">
<circle cx="18.5" cy="18.5" r="18.5" fill="#FFB72A"/>
<circle cx="18.0821" cy="12.8152" r="3.31524" stroke="white"/>
<path d="M11.8823 22.3533C12.0413 20.2867 13.5038 16.1536 18.0821 16.1536C22.6604 16.1536 24.1229 20.2867 24.2818 22.3533" stroke="white"/>
<path d="M20.7142 21.6919L24.6918 13.1619L26.955 14.2173L22.9774 22.7472L21.2492 23.4991L20.7142 21.6919Z" fill="white"/>
<path d="M27.5573 13.1142L25.2941 12.0588L26.084 10.1765L28.3472 11.2318L27.5573 13.1142Z" fill="white"/>
<path d="M20.7142 21.6919L24.6918 13.1619L26.955 14.2173L22.9774 22.7472L21.2492 23.4991L20.7142 21.6919Z" stroke="#FFB72A" stroke-width="0.5"/>
<path d="M27.5573 13.1142L25.2941 12.0588L26.084 10.1765L28.3472 11.2318L27.5573 13.1142Z" stroke="#FFB72A" stroke-width="0.5"/>
<path d="M8 25C9.22093 25 12.1512 25.2909 14.1047 26.4545C16.0581 27.6182 17.6221 28.5152 18.2326 29C18.843 28.5152 20.6277 26.931 22.4186 26.0909C24.7442 25 26.7791 25 28 25" stroke="white" stroke-width="1.5"/>
<path d="M10 23C10.9767 23 13.3209 23.2182 14.8837 24.0909C16.4465 24.9636 17.6977 25.6364 18.186 26C18.6744 25.6364 20.1022 24.4482 21.5349 23.8182C23.3953 23 25.0233 23 26 23" stroke="white" stroke-width="0.5"/>
</svg>
