<svg width="21" height="25" viewBox="0 0 21 25" fill="none" xmlns="http://www.w3.org/2000/svg">
<rect y="2.41934" width="20.1613" height="22.5806" rx="2" fill="#BB86FD"/>
<rect y="2.41934" width="20.1613" height="22.5806" rx="2" fill="black" fill-opacity="0.25"/>
<rect x="1.61279" y="4.03226" width="16.9355" height="19.3548" rx="2" fill="white"/>
<rect x="6.06494" y="1.1474" width="8.03173" height="3.27826" rx="1.63913" fill="#8522FF"/>
<rect x="6.06494" y="1.1474" width="7.86782" height="2.45869" rx="1.22935" fill="#BB86FD"/>
<ellipse cx="10.1625" cy="1.14739" rx="1.14739" ry="1.14739" fill="#BB86FD"/>
<circle cx="10.2444" cy="1.22937" r="0.737608" fill="#8522FF"/>
<ellipse cx="9.61292" cy="17.3226" rx="3.38708" ry="3.32259" fill="#FF0019"/>
<path d="M9.66846 18.1762H9.10965V17.8803C9.10965 17.6375 9.18416 17.4364 9.33317 17.277C9.48574 17.1177 9.67733 16.9982 9.90795 16.9185C10.1599 16.835 10.2858 16.6852 10.2858 16.4689C10.2858 16.3248 10.2397 16.2034 10.1474 16.1047C10.0552 16.0061 9.94698 15.9568 9.8228 15.9568H9.71636C9.58508 15.9568 9.47332 16.0061 9.38107 16.1047C9.29237 16.2034 9.24802 16.3191 9.24802 16.4519V16.7193H8.68921V16.4519C8.68921 16.1749 8.78855 15.9378 8.98724 15.7405C9.18948 15.5432 9.43252 15.4446 9.71636 15.4446H9.8228C10.1031 15.4446 10.3426 15.5432 10.5413 15.7405C10.7435 15.9378 10.8446 16.1749 10.8446 16.4519V16.5258C10.8446 16.7231 10.7737 16.8995 10.6317 17.0551C10.4934 17.2106 10.316 17.3245 10.0995 17.3965C10.0108 17.4307 9.93634 17.4648 9.87602 17.499C9.8157 17.5293 9.76603 17.573 9.727 17.6299C9.68797 17.683 9.66846 17.7551 9.66846 17.8461V18.1762ZM9.39172 19.2005C9.30302 19.2005 9.22673 19.1683 9.16287 19.1038C9.099 19.0355 9.06707 18.9539 9.06707 18.8591C9.06707 18.768 9.099 18.6884 9.16287 18.6201C9.22673 18.5518 9.30302 18.5176 9.39172 18.5176C9.47687 18.5176 9.5496 18.5518 9.60992 18.6201C9.67378 18.6884 9.70571 18.768 9.70571 18.8591C9.70571 18.9539 9.67378 19.0355 9.60992 19.1038C9.5496 19.1683 9.47687 19.2005 9.39172 19.2005Z" fill="white"/>
<ellipse cx="5.89683" cy="9" rx="2.89683" ry="3" fill="#FF82A8"/>
<path d="M5.94445 9.77079H5.46652V9.50359C5.46652 9.28436 5.53024 9.1028 5.65769 8.95893C5.78817 8.81505 5.95203 8.70715 6.14927 8.63521C6.36472 8.55985 6.47244 8.42454 6.47244 8.22928C6.47244 8.09911 6.433 7.98949 6.3541 7.90043C6.2752 7.81137 6.18265 7.76683 6.07645 7.76683H5.98541C5.87314 7.76683 5.77755 7.81137 5.69865 7.90043C5.62279 7.98949 5.58486 8.09397 5.58486 8.21387V8.45537H5.10693V8.21387C5.10693 7.9638 5.1919 7.7497 5.36183 7.57158C5.53479 7.39345 5.74265 7.30438 5.98541 7.30438H6.07645C6.31617 7.30438 6.52099 7.39345 6.69092 7.57158C6.86389 7.7497 6.95037 7.9638 6.95037 8.21387V8.28067C6.95037 8.4588 6.88968 8.61808 6.7683 8.75853C6.64996 8.89898 6.49824 9.00175 6.31313 9.06683C6.23727 9.09766 6.17355 9.12849 6.12196 9.15932C6.07038 9.18673 6.02789 9.22612 5.99451 9.2775C5.96114 9.32546 5.94445 9.39055 5.94445 9.47276V9.77079ZM5.70776 10.6957C5.6319 10.6957 5.56666 10.6666 5.51203 10.6083C5.45741 10.5467 5.4301 10.473 5.4301 10.3874C5.4301 10.3052 5.45741 10.2332 5.51203 10.1716C5.56666 10.1099 5.6319 10.0791 5.70776 10.0791C5.78058 10.0791 5.84279 10.1099 5.89438 10.1716C5.949 10.2332 5.97631 10.3052 5.97631 10.3874C5.97631 10.473 5.949 10.5467 5.89438 10.6083C5.84279 10.6666 5.78058 10.6957 5.70776 10.6957Z" fill="white"/>
<path d="M10 8H13.3556" stroke="#ABABAB" stroke-width="0.5"/>
<path d="M10 9.33868H17.0972" stroke="#ABABAB" stroke-width="0.5"/>
<path d="M10 10.8834H14.6019" stroke="#ABABAB" stroke-width="0.5"/>
<circle cx="9.5" cy="17.5" r="5" stroke="#0E98FC"/>
<line y1="-0.5" x2="4.81486" y2="-0.5" transform="matrix(-0.748329 0.663327 -0.646479 -0.762931 5.60303 20.8248)" stroke="#323232"/>
</svg>
