<svg width="37" height="37" viewBox="0 0 37 37" fill="none" xmlns="http://www.w3.org/2000/svg">
<circle cx="18.5" cy="18.5" r="18.5" fill="#FF82A8"/>
<path d="M15.912 19.64L16.296 19.624C16.552 19.624 16.7227 19.6827 16.808 19.8C16.904 19.9067 16.952 20.104 16.952 20.392C16.952 20.6693 16.888 20.872 16.76 21C16.6427 21.1387 16.4027 21.208 16.04 21.208C15.688 21.208 15.4373 21.1387 15.288 21C15.1493 20.8613 15.08 20.5573 15.08 20.088C15.08 19.6187 15.1493 19.384 15.288 19.384L15.464 19.512C15.5813 19.5973 15.7307 19.64 15.912 19.64ZM14.2 10.632C14.4133 10.4187 14.744 10.2213 15.192 10.04C15.64 9.85867 16.1467 9.768 16.712 9.768C17.2773 9.768 17.752 9.85333 18.136 10.024C18.52 10.184 18.8027 10.3707 18.984 10.584C19.1653 10.7973 19.3093 11.0427 19.416 11.32C19.5547 11.6827 19.624 12.0613 19.624 12.456C19.624 12.8507 19.5173 13.2613 19.304 13.688C19.0907 14.1147 18.8347 14.472 18.536 14.76C18.2373 15.048 17.9387 15.3147 17.64 15.56C16.9147 16.1787 16.552 16.712 16.552 17.16C16.552 17.416 16.6267 17.6507 16.776 17.864C16.9253 18.0773 17 18.1893 17 18.2C17 18.296 16.8933 18.344 16.68 18.344C16.584 18.344 16.4133 18.3067 16.168 18.232C15.9333 18.1467 15.7413 18.0507 15.592 17.944C15.4533 17.8373 15.3253 17.6773 15.208 17.464C15.0907 17.24 15.032 17.016 15.032 16.792C15.032 16.568 15.112 16.4027 15.272 16.296C17 15.0693 17.864 13.7893 17.864 12.456C17.864 12.1147 17.816 11.8 17.72 11.512C17.5387 10.936 17.1867 10.648 16.664 10.648C16.152 10.648 15.7573 10.8507 15.48 11.256C15.2133 11.6613 15.08 12.1573 15.08 12.744C15.08 13.1493 15.1973 13.496 15.432 13.784C15.5173 13.88 15.56 13.944 15.56 13.976C15.56 14.0933 15.416 14.152 15.128 14.152C15 14.152 14.824 14.1147 14.6 14.04C14.376 13.9547 14.1893 13.8533 14.04 13.736C13.9013 13.6187 13.7733 13.432 13.656 13.176C13.5387 12.9093 13.48 12.6747 13.48 12.472C13.48 12.2587 13.4853 12.0987 13.496 11.992C13.5173 11.8747 13.5867 11.672 13.704 11.384C13.832 11.096 13.9973 10.8453 14.2 10.632Z" fill="white"/>
<path d="M10 24.5H19.5L29 14H23.5H21" stroke="white"/>
<path d="M30.5 17L20.5 29H11.5" stroke="white"/>
<path d="M29 14.5C28.8333 14.5 28.6 15.2 29 16C29.4 16.8 29.8333 17.3333 30 17.5L20.5 29C20 28.6667 19 27.8 19 27C19 26.2 19.3333 25 19.5 24.5L29 14.5Z" stroke="white" stroke-width="0.5"/>
</svg>
