<svg width="25" height="24" viewBox="0 0 25 24" fill="none" xmlns="http://www.w3.org/2000/svg">
<path d="M24.6126 5.25422C25.0129 5.82468 25.103 6.4702 24.8828 7.19077L20.7545 20.7917C20.5643 21.4322 20.1815 21.9701 19.6061 22.4055C19.0306 22.8408 18.4176 23.0585 17.7671 23.0585H3.91097C3.14035 23.0585 2.39725 22.7908 1.68168 22.2554C0.966102 21.7199 0.468202 21.0619 0.187977 20.2813C-0.0522158 19.6107 -0.0622239 18.9752 0.157953 18.3748C0.157953 18.3347 0.172965 18.1996 0.202989 17.9694C0.233013 17.7392 0.253029 17.5541 0.263037 17.414C0.273045 17.3339 0.258033 17.2263 0.218001 17.0912C0.177969 16.9561 0.162957 16.8585 0.172965 16.7985C0.192981 16.6884 0.233013 16.5833 0.293061 16.4832C0.35311 16.3832 0.435676 16.2656 0.54076 16.1305C0.645845 15.9953 0.728411 15.8778 0.788459 15.7777C1.01864 15.3974 1.24382 14.9395 1.464 14.4041C1.68418 13.8686 1.8343 13.4108 1.91436 13.0305C1.94439 12.9304 1.94689 12.7803 1.92187 12.5801C1.89685 12.3799 1.89435 12.2398 1.91436 12.1598C1.94439 12.0497 2.02946 11.9096 2.16957 11.7394C2.30968 11.5693 2.39475 11.4542 2.42477 11.3941C2.63494 11.0339 2.84511 10.5735 3.05528 10.013C3.26545 9.45259 3.39055 9.00223 3.43058 8.66196C3.44059 8.57188 3.42808 8.41175 3.39305 8.18157C3.35802 7.95139 3.36052 7.81127 3.40056 7.76123C3.44059 7.63113 3.55068 7.47851 3.73082 7.30337C3.91097 7.12822 4.02105 7.01563 4.06109 6.96559C4.25124 6.70538 4.46391 6.28255 4.6991 5.69707C4.93429 5.1116 5.0719 4.62872 5.11193 4.24841C5.12194 4.16835 5.10693 4.04075 5.0669 3.8656C5.02686 3.69046 5.01685 3.55786 5.03687 3.46778C5.05689 3.38772 5.10192 3.29765 5.17198 3.19757C5.24204 3.09749 5.33211 2.9824 5.4422 2.85229C5.55228 2.72219 5.63735 2.6171 5.6974 2.53704C5.77747 2.41694 5.86003 2.26432 5.9451 2.07917C6.03017 1.89402 6.10523 1.71888 6.17028 1.55375C6.23533 1.38862 6.3154 1.20847 6.41047 1.01331C6.50555 0.818157 6.60313 0.658028 6.70321 0.532928C6.80329 0.407828 6.9359 0.290233 7.10103 0.180145C7.26616 0.0700563 7.44631 0.01251 7.64146 0.00750603C7.83662 0.00250201 8.07431 0.0300241 8.35454 0.0900723L8.33952 0.135109C8.71983 0.0450362 8.97503 0 9.10514 0H20.5293C21.2699 0 21.8404 0.280225 22.2407 0.840675C22.641 1.40113 22.7311 2.05165 22.5109 2.79224L18.3976 16.3932C18.0373 17.5841 17.6795 18.3522 17.3242 18.6975C16.969 19.0428 16.3259 19.2154 15.3952 19.2154H2.34971C2.0795 19.2154 1.88934 19.2905 1.77925 19.4406C1.66917 19.6007 1.66416 19.8159 1.76424 20.0861C2.00444 20.7867 2.72501 21.137 3.92598 21.137H17.7821C18.0723 21.137 18.3526 21.0594 18.6228 20.9043C18.893 20.7492 19.0681 20.5415 19.1482 20.2813L23.6518 5.46439C23.7219 5.24421 23.7469 4.95898 23.7269 4.6087C24.1072 4.75882 24.4024 4.97399 24.6126 5.25422ZM8.63976 5.28424C8.59973 5.41435 8.60974 5.52694 8.66979 5.62201C8.72984 5.71709 8.82992 5.76463 8.97003 5.76463H18.0974C18.2275 5.76463 18.3551 5.71709 18.4802 5.62201C18.6053 5.52694 18.6878 5.41435 18.7279 5.28424L19.0431 4.32347C19.0832 4.19337 19.0731 4.08078 19.0131 3.9857C18.953 3.89062 18.853 3.84309 18.7129 3.84309H9.58552C9.45542 3.84309 9.32782 3.89062 9.20272 3.9857C9.07762 4.08078 8.99505 4.19337 8.95502 4.32347L8.63976 5.28424ZM7.39376 9.12733C7.35373 9.25743 7.36374 9.37002 7.42379 9.4651C7.48384 9.56018 7.58392 9.60772 7.72403 9.60772H16.8514C16.9815 9.60772 17.1091 9.56018 17.2342 9.4651C17.3593 9.37002 17.4418 9.25743 17.4819 9.12733L17.7971 8.16656C17.8371 8.03645 17.8271 7.92386 17.7671 7.82879C17.707 7.73371 17.607 7.68617 17.4669 7.68617H8.33952C8.20942 7.68617 8.08182 7.73371 7.95672 7.82879C7.83162 7.92386 7.74905 8.03645 7.70902 8.16656L7.39376 9.12733Z" fill="#BB86FD"/>
</svg>
