<svg width="24" height="15" viewBox="0 0 24 15" fill="none" xmlns="http://www.w3.org/2000/svg">
<ellipse cx="5.80797" cy="2.76923" rx="2.64" ry="2.76923" fill="#D9D9D9"/>
<path d="M0.741986 9.23082C1.65261 7.58979 3.01853 6.92313 5.29509 6.92313C7.57164 6.92313 9.25631 7.69236 10.0759 9.23082C10.8954 10.7693 10.8347 12.906 10.7588 13.8462H0.0590226C-0.0168626 13.077 -0.168636 10.8718 0.741986 9.23082Z" fill="#D9D9D9"/>
<ellipse cx="19.0079" cy="2.76923" rx="2.64" ry="2.76923" fill="#D9D9D9"/>
<path d="M13.9419 9.23082C14.8526 7.58979 16.2185 6.92313 18.495 6.92313C20.7716 6.92313 22.4563 7.69236 23.2758 9.23082C24.0954 10.7693 24.0347 12.906 23.9588 13.8462H13.259C13.1831 13.077 13.0313 10.8718 13.9419 9.23082Z" fill="#D9D9D9"/>
<ellipse cx="12.4081" cy="3.92307" rx="2.64" ry="2.76923" fill="#323232"/>
<path d="M7.34208 10.3847C8.25271 8.74363 9.61863 8.07697 11.8952 8.07697C14.1717 8.07697 15.8564 8.8462 16.676 10.3847C17.4955 11.9231 17.4348 14.0599 17.3589 15H6.65912C6.58324 14.2308 6.43146 12.0257 7.34208 10.3847Z" fill="#323232"/>
</svg>
