<svg width="20" height="20" viewBox="0 0 20 20" fill="none" xmlns="http://www.w3.org/2000/svg">
<path d="M15.5614 19.0748C15.3993 19.0744 15.2397 19.0346 15.0964 18.9588L9.9994 16.2788L4.9024 18.9588C4.73736 19.0453 4.55145 19.084 4.36563 19.0704C4.17981 19.0569 4.00147 18.9917 3.85071 18.8822C3.69996 18.7727 3.58278 18.6233 3.51241 18.4508C3.44203 18.2783 3.42125 18.0895 3.4524 17.9058L4.4254 12.2298L0.301398 8.20985C0.167988 8.07959 0.0736517 7.91463 0.0290423 7.73359C-0.0155671 7.55255 -0.00867329 7.36264 0.0489455 7.18532C0.106564 7.00799 0.212613 6.8503 0.355117 6.73006C0.49762 6.60982 0.670903 6.53181 0.855398 6.50485L6.5544 5.67685L9.1034 0.512849C9.19522 0.35669 9.32624 0.227224 9.48349 0.137272C9.64073 0.047319 9.81874 0 9.9999 0C10.1811 0 10.3591 0.047319 10.5163 0.137272C10.6736 0.227224 10.8046 0.35669 10.8964 0.512849L13.4444 5.67685L19.1434 6.50485C19.3279 6.53181 19.5012 6.60982 19.6437 6.73006C19.7862 6.8503 19.8922 7.00799 19.9499 7.18532C20.0075 7.36264 20.0144 7.55255 19.9698 7.73359C19.9251 7.91463 19.8308 8.07959 19.6974 8.20985L15.5734 12.2298L16.5474 17.9058C16.572 18.0493 16.565 18.1964 16.5268 18.3369C16.4887 18.4774 16.4203 18.6079 16.3265 18.7192C16.2327 18.8305 16.1157 18.92 15.9838 18.9815C15.8518 19.0429 15.707 19.0748 15.5614 19.0748Z" fill="#FFB72A"/>
</svg>
